<mxfile host="app.diagrams.net" modified="2023-03-08T08:02:02.208Z" agent="5.0 (Windows NT 10.0; Win64; x64) AppleWebKit/537.36 (KHTML, like Gecko) Chrome/109.0.0.0 Safari/537.36 OPR/95.0.0.0" etag="CGKQGWw4WBNLJqr5kLyH" version="21.0.2" type="github">
  <diagram id="C5RBs43oDa-KdzZeNtuy" name="Page-1">
    <mxGraphModel dx="940" dy="621" grid="1" gridSize="10" guides="1" tooltips="1" connect="1" arrows="1" fold="1" page="1" pageScale="1" pageWidth="827" pageHeight="1169" math="0" shadow="0">
      <root>
        <mxCell id="WIyWlLk6GJQsqaUBKTNV-0" />
        <mxCell id="WIyWlLk6GJQsqaUBKTNV-1" parent="WIyWlLk6GJQsqaUBKTNV-0" />
        <mxCell id="n6CnTrOf9_Go0aguTKJz-1" value="" style="rounded=1;whiteSpace=wrap;html=1;align=left;fontFamily=Helvetica;" vertex="1" parent="WIyWlLk6GJQsqaUBKTNV-1">
          <mxGeometry x="160" y="120" width="120" height="60" as="geometry" />
        </mxCell>
        <mxCell id="n6CnTrOf9_Go0aguTKJz-2" value="" style="rounded=1;whiteSpace=wrap;html=1;align=left;fontFamily=Helvetica;" vertex="1" parent="WIyWlLk6GJQsqaUBKTNV-1">
          <mxGeometry x="160" y="220" width="120" height="60" as="geometry" />
        </mxCell>
        <mxCell id="n6CnTrOf9_Go0aguTKJz-3" value="" style="rounded=1;whiteSpace=wrap;html=1;align=left;fontFamily=Helvetica;" vertex="1" parent="WIyWlLk6GJQsqaUBKTNV-1">
          <mxGeometry x="160" y="420" width="120" height="60" as="geometry" />
        </mxCell>
        <mxCell id="n6CnTrOf9_Go0aguTKJz-4" value="" style="rounded=1;whiteSpace=wrap;html=1;align=left;fontFamily=Helvetica;" vertex="1" parent="WIyWlLk6GJQsqaUBKTNV-1">
          <mxGeometry x="160" y="320" width="120" height="60" as="geometry" />
        </mxCell>
        <mxCell id="n6CnTrOf9_Go0aguTKJz-5" value="" style="rounded=1;whiteSpace=wrap;html=1;align=left;fontFamily=Helvetica;" vertex="1" parent="WIyWlLk6GJQsqaUBKTNV-1">
          <mxGeometry x="160" y="520" width="120" height="60" as="geometry" />
        </mxCell>
        <mxCell id="n6CnTrOf9_Go0aguTKJz-9" value="Actor" style="shape=umlActor;verticalLabelPosition=bottom;verticalAlign=top;html=1;outlineConnect=0;align=left;fontFamily=Helvetica;" vertex="1" parent="WIyWlLk6GJQsqaUBKTNV-1">
          <mxGeometry x="20" y="330" width="30" height="60" as="geometry" />
        </mxCell>
        <mxCell id="n6CnTrOf9_Go0aguTKJz-10" value="Actor" style="shape=umlActor;verticalLabelPosition=bottom;verticalAlign=top;html=1;outlineConnect=0;align=left;fontFamily=Helvetica;" vertex="1" parent="WIyWlLk6GJQsqaUBKTNV-1">
          <mxGeometry x="790" y="335" width="30" height="60" as="geometry" />
        </mxCell>
        <mxCell id="n6CnTrOf9_Go0aguTKJz-13" value="đăng kí tài khoản mới" style="text;html=1;strokeColor=none;fillColor=none;align=left;verticalAlign=middle;whiteSpace=wrap;rounded=0;fontFamily=Helvetica;" vertex="1" parent="WIyWlLk6GJQsqaUBKTNV-1">
          <mxGeometry x="190" y="135" width="60" height="30" as="geometry" />
        </mxCell>
        <mxCell id="n6CnTrOf9_Go0aguTKJz-19" value="user" style="text;html=1;strokeColor=none;fillColor=none;align=left;verticalAlign=middle;whiteSpace=wrap;rounded=0;fontFamily=Helvetica;" vertex="1" parent="WIyWlLk6GJQsqaUBKTNV-1">
          <mxGeometry x="5" y="305" width="60" height="30" as="geometry" />
        </mxCell>
        <mxCell id="n6CnTrOf9_Go0aguTKJz-29" value="" style="endArrow=classic;html=1;rounded=0;entryX=0;entryY=0.5;entryDx=0;entryDy=0;align=left;fontFamily=Helvetica;" edge="1" parent="WIyWlLk6GJQsqaUBKTNV-1" target="n6CnTrOf9_Go0aguTKJz-1">
          <mxGeometry width="50" height="50" relative="1" as="geometry">
            <mxPoint x="70" y="350" as="sourcePoint" />
            <mxPoint x="115" y="300" as="targetPoint" />
            <Array as="points" />
          </mxGeometry>
        </mxCell>
        <mxCell id="n6CnTrOf9_Go0aguTKJz-30" value="" style="endArrow=classic;html=1;rounded=0;entryX=0;entryY=0.5;entryDx=0;entryDy=0;align=left;fontFamily=Helvetica;" edge="1" parent="WIyWlLk6GJQsqaUBKTNV-1" target="n6CnTrOf9_Go0aguTKJz-2">
          <mxGeometry width="50" height="50" relative="1" as="geometry">
            <mxPoint x="70" y="350" as="sourcePoint" />
            <mxPoint x="120" y="300" as="targetPoint" />
          </mxGeometry>
        </mxCell>
        <mxCell id="n6CnTrOf9_Go0aguTKJz-31" value="" style="endArrow=classic;html=1;rounded=0;entryX=0;entryY=0.5;entryDx=0;entryDy=0;align=left;fontFamily=Helvetica;" edge="1" parent="WIyWlLk6GJQsqaUBKTNV-1" target="n6CnTrOf9_Go0aguTKJz-4">
          <mxGeometry width="50" height="50" relative="1" as="geometry">
            <mxPoint x="70" y="350" as="sourcePoint" />
            <mxPoint x="460" y="370" as="targetPoint" />
          </mxGeometry>
        </mxCell>
        <mxCell id="n6CnTrOf9_Go0aguTKJz-32" value="" style="endArrow=classic;html=1;rounded=0;entryX=0;entryY=0.5;entryDx=0;entryDy=0;align=left;fontFamily=Helvetica;" edge="1" parent="WIyWlLk6GJQsqaUBKTNV-1" target="n6CnTrOf9_Go0aguTKJz-3">
          <mxGeometry width="50" height="50" relative="1" as="geometry">
            <mxPoint x="70" y="350" as="sourcePoint" />
            <mxPoint x="460" y="370" as="targetPoint" />
          </mxGeometry>
        </mxCell>
        <mxCell id="n6CnTrOf9_Go0aguTKJz-33" value="" style="endArrow=classic;html=1;rounded=0;entryX=0;entryY=0.5;entryDx=0;entryDy=0;align=left;fontFamily=Helvetica;" edge="1" parent="WIyWlLk6GJQsqaUBKTNV-1" target="n6CnTrOf9_Go0aguTKJz-5">
          <mxGeometry width="50" height="50" relative="1" as="geometry">
            <mxPoint x="70" y="350" as="sourcePoint" />
            <mxPoint x="460" y="370" as="targetPoint" />
          </mxGeometry>
        </mxCell>
        <mxCell id="n6CnTrOf9_Go0aguTKJz-34" value="" style="rounded=1;whiteSpace=wrap;html=1;align=left;fontFamily=Helvetica;" vertex="1" parent="WIyWlLk6GJQsqaUBKTNV-1">
          <mxGeometry x="160" y="620" width="120" height="60" as="geometry" />
        </mxCell>
        <mxCell id="n6CnTrOf9_Go0aguTKJz-35" value="thêm ngân sách" style="text;html=1;strokeColor=none;fillColor=none;align=left;verticalAlign=middle;whiteSpace=wrap;rounded=0;fontFamily=Helvetica;" vertex="1" parent="WIyWlLk6GJQsqaUBKTNV-1">
          <mxGeometry x="190" y="235" width="60" height="30" as="geometry" />
        </mxCell>
        <mxCell id="n6CnTrOf9_Go0aguTKJz-36" value="thêm chi tiêu" style="text;html=1;strokeColor=none;fillColor=none;align=left;verticalAlign=middle;whiteSpace=wrap;rounded=0;fontFamily=Helvetica;" vertex="1" parent="WIyWlLk6GJQsqaUBKTNV-1">
          <mxGeometry x="190" y="335" width="60" height="30" as="geometry" />
        </mxCell>
        <mxCell id="n6CnTrOf9_Go0aguTKJz-37" value="xem chi tiêu" style="text;html=1;strokeColor=none;fillColor=none;align=left;verticalAlign=middle;whiteSpace=wrap;rounded=0;fontFamily=Helvetica;" vertex="1" parent="WIyWlLk6GJQsqaUBKTNV-1">
          <mxGeometry x="190" y="435" width="60" height="30" as="geometry" />
        </mxCell>
        <mxCell id="n6CnTrOf9_Go0aguTKJz-38" value="nhận nhắc nhở" style="text;html=1;strokeColor=none;fillColor=none;align=left;verticalAlign=middle;whiteSpace=wrap;rounded=0;fontFamily=Helvetica;" vertex="1" parent="WIyWlLk6GJQsqaUBKTNV-1">
          <mxGeometry x="190" y="535" width="60" height="30" as="geometry" />
        </mxCell>
        <mxCell id="n6CnTrOf9_Go0aguTKJz-39" value="thanh toán trực tuyến" style="text;html=1;strokeColor=none;fillColor=none;align=left;verticalAlign=middle;whiteSpace=wrap;rounded=0;fontFamily=Helvetica;" vertex="1" parent="WIyWlLk6GJQsqaUBKTNV-1">
          <mxGeometry x="190" y="635" width="60" height="30" as="geometry" />
        </mxCell>
        <mxCell id="n6CnTrOf9_Go0aguTKJz-40" value="" style="endArrow=classic;html=1;rounded=0;entryX=0;entryY=0.5;entryDx=0;entryDy=0;align=left;fontFamily=Helvetica;" edge="1" parent="WIyWlLk6GJQsqaUBKTNV-1" target="n6CnTrOf9_Go0aguTKJz-34">
          <mxGeometry width="50" height="50" relative="1" as="geometry">
            <mxPoint x="70" y="350" as="sourcePoint" />
            <mxPoint x="460" y="400" as="targetPoint" />
          </mxGeometry>
        </mxCell>
        <mxCell id="n6CnTrOf9_Go0aguTKJz-41" value="admin" style="text;html=1;strokeColor=none;fillColor=none;align=left;verticalAlign=middle;whiteSpace=wrap;rounded=0;fontFamily=Helvetica;" vertex="1" parent="WIyWlLk6GJQsqaUBKTNV-1">
          <mxGeometry x="775" y="305" width="60" height="30" as="geometry" />
        </mxCell>
        <mxCell id="n6CnTrOf9_Go0aguTKJz-42" value="" style="rounded=1;whiteSpace=wrap;html=1;align=left;fontFamily=Helvetica;" vertex="1" parent="WIyWlLk6GJQsqaUBKTNV-1">
          <mxGeometry x="560" y="420" width="120" height="60" as="geometry" />
        </mxCell>
        <mxCell id="n6CnTrOf9_Go0aguTKJz-43" value="quản lí thông tin" style="text;html=1;strokeColor=none;fillColor=none;align=left;verticalAlign=middle;whiteSpace=wrap;rounded=0;fontFamily=Helvetica;" vertex="1" parent="WIyWlLk6GJQsqaUBKTNV-1">
          <mxGeometry x="590" y="435" width="60" height="30" as="geometry" />
        </mxCell>
        <mxCell id="n6CnTrOf9_Go0aguTKJz-44" value="" style="endArrow=none;html=1;rounded=0;exitX=1;exitY=0.5;exitDx=0;exitDy=0;entryX=0;entryY=0.5;entryDx=0;entryDy=0;align=left;fontFamily=Helvetica;" edge="1" parent="WIyWlLk6GJQsqaUBKTNV-1" source="n6CnTrOf9_Go0aguTKJz-3" target="n6CnTrOf9_Go0aguTKJz-42">
          <mxGeometry width="50" height="50" relative="1" as="geometry">
            <mxPoint x="410" y="440" as="sourcePoint" />
            <mxPoint x="460" y="390" as="targetPoint" />
          </mxGeometry>
        </mxCell>
        <mxCell id="n6CnTrOf9_Go0aguTKJz-45" value="" style="endArrow=none;html=1;rounded=0;exitX=1;exitY=0.5;exitDx=0;exitDy=0;entryX=0;entryY=0.5;entryDx=0;entryDy=0;align=left;fontFamily=Helvetica;" edge="1" parent="WIyWlLk6GJQsqaUBKTNV-1" source="n6CnTrOf9_Go0aguTKJz-5" target="n6CnTrOf9_Go0aguTKJz-42">
          <mxGeometry width="50" height="50" relative="1" as="geometry">
            <mxPoint x="410" y="440" as="sourcePoint" />
            <mxPoint x="460" y="390" as="targetPoint" />
          </mxGeometry>
        </mxCell>
        <mxCell id="n6CnTrOf9_Go0aguTKJz-46" value="" style="endArrow=classic;html=1;rounded=0;entryX=1;entryY=0.5;entryDx=0;entryDy=0;align=left;fontFamily=Helvetica;" edge="1" parent="WIyWlLk6GJQsqaUBKTNV-1" target="n6CnTrOf9_Go0aguTKJz-42">
          <mxGeometry width="50" height="50" relative="1" as="geometry">
            <mxPoint x="780" y="360" as="sourcePoint" />
            <mxPoint x="460" y="390" as="targetPoint" />
          </mxGeometry>
        </mxCell>
        <mxCell id="n6CnTrOf9_Go0aguTKJz-47" value="" style="rounded=1;whiteSpace=wrap;html=1;align=left;fontFamily=Helvetica;" vertex="1" parent="WIyWlLk6GJQsqaUBKTNV-1">
          <mxGeometry x="560" y="320" width="120" height="60" as="geometry" />
        </mxCell>
        <mxCell id="n6CnTrOf9_Go0aguTKJz-48" value="quản lí" style="text;html=1;strokeColor=none;fillColor=none;align=left;verticalAlign=middle;whiteSpace=wrap;rounded=0;fontFamily=Helvetica;" vertex="1" parent="WIyWlLk6GJQsqaUBKTNV-1">
          <mxGeometry x="590" y="335" width="60" height="30" as="geometry" />
        </mxCell>
        <mxCell id="n6CnTrOf9_Go0aguTKJz-49" value="" style="endArrow=none;html=1;rounded=0;exitX=1;exitY=0.5;exitDx=0;exitDy=0;entryX=0;entryY=0.5;entryDx=0;entryDy=0;align=left;fontFamily=Helvetica;" edge="1" parent="WIyWlLk6GJQsqaUBKTNV-1" source="n6CnTrOf9_Go0aguTKJz-4" target="n6CnTrOf9_Go0aguTKJz-47">
          <mxGeometry width="50" height="50" relative="1" as="geometry">
            <mxPoint x="410" y="440" as="sourcePoint" />
            <mxPoint x="460" y="390" as="targetPoint" />
          </mxGeometry>
        </mxCell>
        <mxCell id="n6CnTrOf9_Go0aguTKJz-50" value="" style="endArrow=none;html=1;rounded=0;entryX=0;entryY=0.5;entryDx=0;entryDy=0;align=left;fontFamily=Helvetica;" edge="1" parent="WIyWlLk6GJQsqaUBKTNV-1" target="n6CnTrOf9_Go0aguTKJz-47">
          <mxGeometry width="50" height="50" relative="1" as="geometry">
            <mxPoint x="280" y="250" as="sourcePoint" />
            <mxPoint x="460" y="390" as="targetPoint" />
          </mxGeometry>
        </mxCell>
        <mxCell id="n6CnTrOf9_Go0aguTKJz-51" value="" style="endArrow=classic;html=1;rounded=0;entryX=1;entryY=0.5;entryDx=0;entryDy=0;align=left;fontFamily=Helvetica;" edge="1" parent="WIyWlLk6GJQsqaUBKTNV-1" target="n6CnTrOf9_Go0aguTKJz-47">
          <mxGeometry width="50" height="50" relative="1" as="geometry">
            <mxPoint x="780" y="360" as="sourcePoint" />
            <mxPoint x="460" y="390" as="targetPoint" />
          </mxGeometry>
        </mxCell>
        <mxCell id="n6CnTrOf9_Go0aguTKJz-52" value="" style="rounded=1;whiteSpace=wrap;html=1;align=left;fontFamily=Helvetica;" vertex="1" parent="WIyWlLk6GJQsqaUBKTNV-1">
          <mxGeometry x="560" y="220" width="120" height="60" as="geometry" />
        </mxCell>
        <mxCell id="n6CnTrOf9_Go0aguTKJz-53" value="bảo mật" style="text;html=1;strokeColor=none;fillColor=none;align=left;verticalAlign=middle;whiteSpace=wrap;rounded=0;fontFamily=Helvetica;" vertex="1" parent="WIyWlLk6GJQsqaUBKTNV-1">
          <mxGeometry x="590" y="235" width="60" height="30" as="geometry" />
        </mxCell>
        <mxCell id="n6CnTrOf9_Go0aguTKJz-55" value="" style="endArrow=classic;html=1;rounded=0;entryX=1;entryY=0.5;entryDx=0;entryDy=0;align=left;fontFamily=Helvetica;" edge="1" parent="WIyWlLk6GJQsqaUBKTNV-1" target="n6CnTrOf9_Go0aguTKJz-52">
          <mxGeometry width="50" height="50" relative="1" as="geometry">
            <mxPoint x="780" y="360" as="sourcePoint" />
            <mxPoint x="460" y="390" as="targetPoint" />
          </mxGeometry>
        </mxCell>
        <mxCell id="n6CnTrOf9_Go0aguTKJz-56" value="" style="endArrow=none;html=1;rounded=0;exitX=1;exitY=0.5;exitDx=0;exitDy=0;entryX=0;entryY=0.5;entryDx=0;entryDy=0;align=left;fontFamily=Helvetica;" edge="1" parent="WIyWlLk6GJQsqaUBKTNV-1" source="n6CnTrOf9_Go0aguTKJz-1" target="n6CnTrOf9_Go0aguTKJz-52">
          <mxGeometry width="50" height="50" relative="1" as="geometry">
            <mxPoint x="410" y="440" as="sourcePoint" />
            <mxPoint x="460" y="390" as="targetPoint" />
          </mxGeometry>
        </mxCell>
        <mxCell id="n6CnTrOf9_Go0aguTKJz-57" value="" style="endArrow=none;html=1;rounded=0;exitX=1;exitY=0.5;exitDx=0;exitDy=0;align=left;fontFamily=Helvetica;" edge="1" parent="WIyWlLk6GJQsqaUBKTNV-1" source="n6CnTrOf9_Go0aguTKJz-34">
          <mxGeometry width="50" height="50" relative="1" as="geometry">
            <mxPoint x="410" y="440" as="sourcePoint" />
            <mxPoint x="560" y="350" as="targetPoint" />
          </mxGeometry>
        </mxCell>
        <mxCell id="n6CnTrOf9_Go0aguTKJz-58" value="Sign in" style="swimlane;whiteSpace=wrap;html=1;startSize=40;align=left;fontFamily=Helvetica;fontSize=20;" vertex="1" parent="WIyWlLk6GJQsqaUBKTNV-1">
          <mxGeometry x="150" y="930" width="320" height="400" as="geometry" />
        </mxCell>
        <mxCell id="n6CnTrOf9_Go0aguTKJz-61" value="User Name:" style="text;html=1;strokeColor=none;fillColor=none;align=center;verticalAlign=middle;whiteSpace=wrap;rounded=0;" vertex="1" parent="n6CnTrOf9_Go0aguTKJz-58">
          <mxGeometry x="30" y="50" width="80" height="30" as="geometry" />
        </mxCell>
        <mxCell id="n6CnTrOf9_Go0aguTKJz-62" value="" style="rounded=0;whiteSpace=wrap;html=1;" vertex="1" parent="n6CnTrOf9_Go0aguTKJz-58">
          <mxGeometry x="30" y="80" width="240" height="40" as="geometry" />
        </mxCell>
        <mxCell id="n6CnTrOf9_Go0aguTKJz-63" value="Password:" style="text;html=1;strokeColor=none;fillColor=none;align=center;verticalAlign=middle;whiteSpace=wrap;rounded=0;" vertex="1" parent="n6CnTrOf9_Go0aguTKJz-58">
          <mxGeometry x="40" y="130" width="60" height="30" as="geometry" />
        </mxCell>
        <mxCell id="n6CnTrOf9_Go0aguTKJz-65" value="" style="rounded=1;whiteSpace=wrap;html=1;fillColor=#1ba1e2;strokeColor=#006EAF;fontColor=#ffffff;" vertex="1" parent="n6CnTrOf9_Go0aguTKJz-58">
          <mxGeometry x="50" y="220" width="100" height="40" as="geometry" />
        </mxCell>
        <mxCell id="n6CnTrOf9_Go0aguTKJz-67" value="&lt;u&gt;Forgot Password?&lt;/u&gt;" style="text;html=1;strokeColor=none;fillColor=none;align=center;verticalAlign=middle;whiteSpace=wrap;rounded=0;fontColor=#1f11e4;" vertex="1" parent="n6CnTrOf9_Go0aguTKJz-58">
          <mxGeometry y="265" width="160" height="30" as="geometry" />
        </mxCell>
        <mxCell id="n6CnTrOf9_Go0aguTKJz-68" value="New User" style="text;html=1;strokeColor=none;fillColor=none;align=center;verticalAlign=middle;whiteSpace=wrap;rounded=0;" vertex="1" parent="n6CnTrOf9_Go0aguTKJz-58">
          <mxGeometry x="40" y="310" width="60" height="30" as="geometry" />
        </mxCell>
        <mxCell id="n6CnTrOf9_Go0aguTKJz-70" value="" style="rounded=1;whiteSpace=wrap;html=1;fillColor=#1ba1e2;strokeColor=#006EAF;fontColor=#ffffff;" vertex="1" parent="n6CnTrOf9_Go0aguTKJz-58">
          <mxGeometry x="50" y="340" width="100" height="40" as="geometry" />
        </mxCell>
        <mxCell id="n6CnTrOf9_Go0aguTKJz-73" value="SIGN IN" style="text;html=1;strokeColor=none;fillColor=none;align=center;verticalAlign=middle;whiteSpace=wrap;rounded=0;fontColor=#FFFFFF;fontSize=17;" vertex="1" parent="n6CnTrOf9_Go0aguTKJz-58">
          <mxGeometry x="55" y="215" width="90" height="50" as="geometry" />
        </mxCell>
        <mxCell id="n6CnTrOf9_Go0aguTKJz-74" value="SIGN UP" style="text;html=1;strokeColor=none;fillColor=none;align=center;verticalAlign=middle;whiteSpace=wrap;rounded=0;fontColor=#FFFFFF;fontSize=17;" vertex="1" parent="n6CnTrOf9_Go0aguTKJz-58">
          <mxGeometry x="55" y="335" width="90" height="50" as="geometry" />
        </mxCell>
        <mxCell id="n6CnTrOf9_Go0aguTKJz-75" value="" style="rounded=0;whiteSpace=wrap;html=1;" vertex="1" parent="n6CnTrOf9_Go0aguTKJz-58">
          <mxGeometry x="30" y="160" width="240" height="45" as="geometry" />
        </mxCell>
        <mxCell id="n6CnTrOf9_Go0aguTKJz-69" value="SIGN UP" style="text;html=1;strokeColor=none;fillColor=none;align=center;verticalAlign=middle;whiteSpace=wrap;rounded=0;fontColor=#FFFFFF;fontSize=17;" vertex="1" parent="WIyWlLk6GJQsqaUBKTNV-1">
          <mxGeometry x="640" y="1100" width="90" height="50" as="geometry" />
        </mxCell>
        <mxCell id="n6CnTrOf9_Go0aguTKJz-66" value="SIGN UP" style="text;html=1;strokeColor=none;fillColor=none;align=center;verticalAlign=middle;whiteSpace=wrap;rounded=0;fontColor=#FFFFFF;fontSize=17;" vertex="1" parent="WIyWlLk6GJQsqaUBKTNV-1">
          <mxGeometry x="70" y="1430" width="90" height="50" as="geometry" />
        </mxCell>
      </root>
    </mxGraphModel>
  </diagram>
</mxfile>
